<svg width="18" height="18" viewBox="0 0 18 18" fill="none" xmlns="http://www.w3.org/2000/svg">
<g clip-path="url(#clip0_29_958)">
<path d="M14.2018 11.4444L16.9045 14.148C17.0789 14.3226 17.1769 14.5592 17.1769 14.8059C17.1769 15.0527 17.0789 15.2893 16.9045 15.4638C15.9539 16.4144 14.6924 16.9902 13.3514 17.0856C12.0105 17.181 10.6802 16.7896 9.60458 15.9831L7.99628 14.7771C6.21619 13.4419 4.63497 11.8604 3.30008 10.08L2.09408 8.47175C1.28767 7.39617 0.896235 6.06582 0.991626 4.7249C1.08702 3.38398 1.66283 2.12244 2.61338 1.17185C2.78789 0.997407 3.02454 0.899414 3.27128 0.899414C3.51803 0.899414 3.75467 0.997407 3.92918 1.17185L6.63278 3.87635C6.72759 3.97112 6.8028 4.08365 6.85411 4.2075C6.90543 4.33135 6.93184 4.46409 6.93184 4.59815C6.93184 4.7322 6.90543 4.86495 6.85411 4.9888C6.8028 5.11264 6.72759 5.22517 6.63278 5.31995L5.59058 6.36215C5.50975 6.44286 5.45634 6.54695 5.43793 6.65969C5.41952 6.77243 5.43703 6.88811 5.48798 6.99035C6.69954 9.4129 8.66413 11.3772 11.0869 12.5883C11.2966 12.6936 11.5495 12.6522 11.7151 12.4866L12.7573 11.4444C12.8521 11.3496 12.9646 11.2744 13.0884 11.2231C13.2123 11.1718 13.345 11.1454 13.4791 11.1454C13.6131 11.1454 13.7459 11.1718 13.8697 11.2231C13.9936 11.2744 14.107 11.3496 14.2018 11.4444Z" fill="#4D799D" stroke="#4D799D"/>
</g>
<defs>
<clipPath id="clip0_29_958">
<rect width="18" height="18" fill="white"/>
</clipPath>
</defs>
</svg>
