<svg width="18" height="18" viewBox="0 0 18 18" fill="none" xmlns="http://www.w3.org/2000/svg">
<g clip-path="url(#clip0_16_289)">
<path d="M14.202 11.4444L16.9047 14.148C17.0791 14.3226 17.1771 14.5592 17.1771 14.8059C17.1771 15.0527 17.0791 15.2893 16.9047 15.4638C15.9541 16.4144 14.6926 16.9902 13.3516 17.0856C12.0107 17.181 10.6804 16.7896 9.6048 15.9831L7.9965 14.7771C6.2164 13.4419 4.63518 11.8604 3.3003 10.08L2.0943 8.47175C1.28788 7.39617 0.896449 6.06582 0.991839 4.7249C1.08723 3.38398 1.66305 2.12244 2.6136 1.17185C2.78811 0.997407 3.02475 0.899414 3.2715 0.899414C3.51824 0.899414 3.75489 0.997407 3.9294 1.17185L6.633 3.87635C6.72781 3.97112 6.80302 4.08365 6.85433 4.2075C6.90564 4.33135 6.93205 4.46409 6.93205 4.59815C6.93205 4.7322 6.90564 4.86495 6.85433 4.9888C6.80302 5.11264 6.72781 5.22517 6.633 5.31995L5.5908 6.36215C5.50996 6.44286 5.45656 6.54695 5.43814 6.65969C5.41973 6.77243 5.43724 6.88811 5.4882 6.99035C6.69976 9.4129 8.66434 11.3772 11.0871 12.5883C11.2968 12.6936 11.5497 12.6522 11.7153 12.4866L12.7575 11.4444C12.8523 11.3496 12.9648 11.2744 13.0886 11.2231C13.2125 11.1718 13.3452 11.1454 13.4793 11.1454C13.6134 11.1454 13.7461 11.1718 13.8699 11.2231C13.9938 11.2744 14.1072 11.3496 14.202 11.4444Z" fill="white" stroke="white"/>
</g>
<defs>
<clipPath id="clip0_16_289">
<rect width="18" height="18" fill="white"/>
</clipPath>
</defs>
</svg>
