<svg width="25" height="25" viewBox="0 0 25 25" fill="none" xmlns="http://www.w3.org/2000/svg">
<rect width="25" height="25" rx="12.5" fill="white"/>
<path fill-rule="evenodd" clip-rule="evenodd" d="M5.79448 12.3681C9.48404 10.7804 11.9443 9.73378 13.1753 9.22808C16.6901 7.78421 17.4204 7.53339 17.8965 7.52511C18.0012 7.52329 18.2353 7.54892 18.3869 7.67044C18.5149 7.77305 18.5502 7.91167 18.567 8.00896C18.5839 8.10625 18.6049 8.32787 18.5882 8.50104C18.3977 10.4776 17.5736 15.2741 17.1543 17.4879C16.9769 18.4246 16.6275 18.7387 16.2894 18.7694C15.5544 18.8362 14.9963 18.2897 14.2844 17.8289C13.1705 17.1077 12.5412 16.6588 11.46 15.955C10.2104 15.1417 11.0204 14.6948 11.7326 13.9642C11.9189 13.7731 15.1572 10.8639 15.2199 10.6C15.2278 10.567 15.235 10.444 15.161 10.379C15.087 10.3141 14.9778 10.3363 14.899 10.354C14.7873 10.379 13.0078 11.5407 9.56051 13.8389C9.0554 14.1815 8.5979 14.3484 8.18799 14.3397C7.73609 14.33 6.86683 14.0873 6.22063 13.8798C5.42803 13.6254 4.79809 13.4908 4.85294 13.0587C4.88151 12.8336 5.19536 12.6034 5.79448 12.3681Z" fill="#4D799D"/>
</svg>
