<svg width="25" height="25" viewBox="0 0 25 25" fill="none" xmlns="http://www.w3.org/2000/svg">
<path d="M12.5 0C19.4036 0 25 5.59644 25 12.5C25 19.4036 19.4036 25 12.5 25C5.59644 25 0 19.4036 0 12.5C0 5.59644 5.59644 0 12.5 0Z" fill="white"/>
<path d="M17.7421 6.63108C17.3873 6.29671 15.9534 5.23365 12.7595 5.21921C12.7595 5.21921 8.99301 4.98725 7.15693 6.70724C6.13486 7.75126 5.77531 9.2789 5.73739 11.1729C5.69946 13.0668 5.65039 16.6162 9.00051 17.5786H9.00372L9.00158 19.0471C9.00158 19.0471 8.98015 19.6417 9.36348 19.7629C9.82716 19.91 10.0993 19.4581 10.542 18.971C10.785 18.7036 11.1205 18.3108 11.3733 18.0106C13.6645 18.2075 15.4267 17.7574 15.6268 17.6909C16.0894 17.5377 18.7072 17.195 19.1329 13.646C19.5724 9.9879 18.9204 7.67402 17.7421 6.63108ZM18.1304 13.3837C17.771 16.347 15.6478 16.5333 15.2563 16.6615C15.0899 16.7162 13.5422 17.1094 11.596 16.9797C11.596 16.9797 10.1458 18.7664 9.69282 19.231C9.62211 19.3036 9.53897 19.3329 9.48347 19.3185C9.40548 19.299 9.38405 19.2047 9.38491 19.0668C9.3862 18.8699 9.39734 16.6265 9.39734 16.6265C9.39562 16.6265 9.39734 16.6265 9.39734 16.6265C6.5634 15.8229 6.7286 12.802 6.76074 11.2201C6.79288 9.63821 7.08386 8.34232 7.94823 7.47073C9.50126 6.03412 12.7005 6.24879 12.7005 6.24879C15.4023 6.26083 16.6969 7.09172 16.9971 7.37006C17.9939 8.24166 18.5017 10.3273 18.1304 13.3828V13.3837Z" fill="#4D799D"/>
<path fill-rule="evenodd" clip-rule="evenodd" d="M12.8145 9.94025C12.8197 9.8385 12.9046 9.76033 13.0043 9.76564C13.377 9.78549 13.6871 9.90072 13.9079 10.1339C14.128 10.3663 14.2358 10.6908 14.2547 11.0806C14.2597 11.1824 14.1829 11.2689 14.0833 11.274C13.9837 11.279 13.8989 11.2006 13.8939 11.0989C13.8777 10.7652 13.7881 10.5381 13.6483 10.3904C13.5093 10.2437 13.2972 10.1507 12.9854 10.1341C12.8858 10.1288 12.8093 10.042 12.8145 9.94025Z" fill="#4D799D"/>
<path fill-rule="evenodd" clip-rule="evenodd" d="M12.5408 8.94641C12.5481 8.8448 12.6346 8.76845 12.7341 8.77589C13.4926 8.83259 14.1032 9.09728 14.5479 9.59306L14.548 9.59313C14.9879 10.084 15.197 10.6947 15.1818 11.411C15.1796 11.5129 15.097 11.5937 14.9973 11.5914C14.8975 11.5892 14.8184 11.5049 14.8206 11.403C14.834 10.7713 14.6521 10.2558 14.2815 9.84221C13.912 9.43034 13.3955 9.19525 12.7077 9.14385C12.6082 9.13641 12.5335 9.04802 12.5408 8.94641Z" fill="#4D799D"/>
<path fill-rule="evenodd" clip-rule="evenodd" d="M12.2217 8.00167C12.2224 7.89979 12.3038 7.81778 12.4036 7.81849C13.4518 7.82594 14.3379 8.18234 15.0493 8.8906C15.7666 9.60478 16.1214 10.5771 16.1304 11.7846C16.1312 11.8865 16.0509 11.9697 15.9511 11.9705C15.8514 11.9713 15.7699 11.8893 15.7691 11.7874C15.7607 10.6559 15.4311 9.78595 14.7971 9.15478C14.1572 8.51769 13.3627 8.19426 12.4011 8.18742C12.3013 8.18671 12.221 8.10355 12.2217 8.00167Z" fill="#4D799D"/>
<path d="M13.0307 13.5606C13.0307 13.5606 13.2846 13.5824 13.4213 13.4104L13.6878 13.068C13.8164 12.8982 14.1267 12.7899 14.4305 12.9627C14.6582 13.0953 14.8792 13.2395 15.0928 13.3947C15.2944 13.5461 15.7073 13.898 15.7086 13.898C15.9053 14.0676 15.9507 14.3166 15.8168 14.5792C15.8168 14.5807 15.8158 14.5834 15.8158 14.5847C15.6683 14.8458 15.481 15.0813 15.261 15.2823C15.2584 15.2836 15.2584 15.2849 15.2561 15.2862C15.065 15.4493 14.8772 15.542 14.6928 15.5644C14.6656 15.5692 14.638 15.571 14.6105 15.5696C14.5292 15.5704 14.4483 15.5577 14.3709 15.532L14.3649 15.523C14.0808 15.4412 13.6064 15.2363 12.8164 14.7913C12.3592 14.5367 11.924 14.2431 11.5154 13.9135C11.3105 13.7484 11.1152 13.5715 10.9302 13.3835L10.9105 13.3634L10.8908 13.3433L10.871 13.3231C10.8644 13.3166 10.858 13.3098 10.8513 13.303C10.6673 13.1141 10.494 12.9146 10.3324 12.7054C10.0097 12.2881 9.72221 11.8437 9.47293 11.3769C9.0371 10.5698 8.83655 10.0858 8.75641 9.7952L8.74762 9.78907C8.72251 9.71009 8.71013 9.62746 8.71098 9.54442C8.70948 9.51631 8.71114 9.48812 8.71591 9.46039C8.73891 9.27234 8.82983 9.08043 8.98868 8.88466C8.98996 8.88225 8.99125 8.88225 8.99254 8.87962C9.1893 8.65495 9.41989 8.46378 9.67563 8.3133C9.67692 8.3133 9.67949 8.31198 9.68099 8.31198C9.93811 8.17522 10.182 8.22161 10.3478 8.4214C10.3491 8.42271 10.693 8.84439 10.8406 9.05031C10.9926 9.26864 11.1338 9.49461 11.2636 9.72736C11.4329 10.0374 11.3268 10.355 11.1605 10.4858L10.8252 10.758C10.6559 10.8977 10.6782 11.157 10.6782 11.157C10.6782 11.157 11.1749 13.0767 13.0307 13.5606Z" fill="#4D799D"/>
</svg>
