<svg width="25" height="25" viewBox="0 0 25 25" fill="none" xmlns="http://www.w3.org/2000/svg">
<path d="M12.5 25C19.4036 25 25 19.4036 25 12.5C25 5.59644 19.4036 0 12.5 0C5.59644 0 0 5.59644 0 12.5C0 19.4036 5.59644 25 12.5 25Z" fill="white"/>
<path d="M12.9116 4.58337C14.8999 4.58423 16.7661 5.35825 18.1694 6.76306C19.5728 8.16796 20.345 10.0358 20.3442 12.0219C20.3425 16.119 17.0097 19.4528 12.9116 19.4545H12.9087C11.6648 19.454 10.4425 19.1422 9.35693 18.5502L5.4165 19.5834L6.47119 15.7318C5.82077 14.6046 5.47848 13.3259 5.479 12.016C5.48063 7.91784 8.81476 4.58346 12.9116 4.58337ZM12.9146 5.83923C9.50691 5.83923 6.73536 8.60987 6.73389 12.016C6.73341 13.1833 7.05981 14.3205 7.67822 15.3041L7.82568 15.5375L7.20068 17.8177L9.53955 17.2045L9.76514 17.3383C10.7136 17.901 11.8012 18.1992 12.9097 18.1996H12.9116C16.3167 18.1996 19.088 15.4274 19.0894 12.0209C19.0899 10.3702 18.4481 8.81843 17.2817 7.65076C16.1154 6.48307 14.5646 5.83987 12.9146 5.83923ZM10.6362 8.59021C10.7502 8.59593 10.9034 8.54646 11.0542 8.90857C11.2088 9.28013 11.5795 10.1932 11.6265 10.2875C11.6729 10.3804 11.7038 10.4888 11.6421 10.6127C11.5802 10.7365 11.5494 10.8148 11.4565 10.9232C11.3638 11.0316 11.2617 11.1652 11.1782 11.2484C11.0853 11.341 10.9879 11.4414 11.0962 11.6273C11.2045 11.8132 11.5775 12.421 12.1294 12.9135C12.8388 13.5462 13.4378 13.7424 13.6235 13.8353C13.8091 13.9283 13.9176 13.9133 14.0259 13.7894C14.1342 13.6655 14.49 13.2468 14.6138 13.0609C14.7375 12.8751 14.8616 12.9062 15.0317 12.9681C15.2027 13.0306 16.1145 13.4797 16.3003 13.5726C16.486 13.6656 16.6103 13.712 16.6567 13.7894C16.703 13.8675 16.7028 14.239 16.5483 14.6722C16.3935 15.1061 15.6513 15.5018 15.2944 15.5551C14.9745 15.6029 14.5694 15.6232 14.1245 15.4818C13.8548 15.3962 13.5089 15.2815 13.0659 15.0902C11.203 14.2857 9.986 12.4106 9.89307 12.2865C9.8002 12.1626 9.13525 11.2788 9.13525 10.3646C9.13539 9.4512 9.61426 9.00186 9.78467 8.8158C9.9549 8.62986 10.157 8.58337 10.2808 8.58337C10.4044 8.58338 10.5282 8.58478 10.6362 8.59021Z" fill="#4D799D"/>
</svg>
