<svg width="25" height="25" viewBox="0 0 25 25" fill="none" xmlns="http://www.w3.org/2000/svg">
<path d="M12.5 25C19.4036 25 25 19.4036 25 12.5C25 5.59644 19.4036 0 12.5 0C5.59644 0 0 5.59644 0 12.5C0 19.4036 5.59644 25 12.5 25Z" fill="#4D799D"/>
<path d="M12.9116 4.58325C14.8999 4.58411 16.7661 5.35813 18.1694 6.76294C19.5728 8.16784 20.345 10.0357 20.3442 12.0217C20.3425 16.1189 17.0097 19.4527 12.9116 19.4543H12.9087C11.6648 19.4539 10.4425 19.1421 9.35693 18.55L5.4165 19.5833L6.47119 15.7317C5.82077 14.6045 5.47848 13.3258 5.479 12.0159C5.48063 7.91772 8.81476 4.58334 12.9116 4.58325ZM12.9146 5.83911C9.50691 5.83911 6.73536 8.60974 6.73389 12.0159C6.73341 13.1832 7.05981 14.3204 7.67822 15.304L7.82568 15.5374L7.20068 17.8176L9.53955 17.2043L9.76514 17.3381C10.7136 17.9009 11.8012 18.199 12.9097 18.1995H12.9116C16.3167 18.1995 19.088 15.4272 19.0894 12.0208C19.0899 10.3701 18.4481 8.81831 17.2817 7.65063C16.1154 6.48294 14.5646 5.83975 12.9146 5.83911ZM10.6362 8.59009C10.7502 8.5958 10.9034 8.54634 11.0542 8.90845C11.2088 9.28001 11.5795 10.1931 11.6265 10.2874C11.6729 10.3803 11.7038 10.4886 11.6421 10.6125C11.5802 10.7364 11.5494 10.8147 11.4565 10.9231C11.3638 11.0314 11.2617 11.1651 11.1782 11.2483C11.0853 11.3409 10.9879 11.4413 11.0962 11.6272C11.2045 11.8131 11.5775 12.4209 12.1294 12.9133C12.8388 13.5461 13.4378 13.7423 13.6235 13.8352C13.8091 13.9281 13.9176 13.9132 14.0259 13.7893C14.1342 13.6653 14.49 13.2467 14.6138 13.0608C14.7375 12.875 14.8616 12.9061 15.0317 12.968C15.2027 13.0304 16.1145 13.4795 16.3003 13.5725C16.486 13.6655 16.6103 13.7118 16.6567 13.7893C16.703 13.8674 16.7028 14.2388 16.5483 14.6721C16.3935 15.1059 15.6513 15.5016 15.2944 15.5549C14.9745 15.6028 14.5694 15.6231 14.1245 15.4817C13.8548 15.3961 13.5089 15.2814 13.0659 15.0901C11.203 14.2856 9.986 12.4105 9.89307 12.2864C9.8002 12.1624 9.13525 11.2787 9.13525 10.3645C9.13539 9.45108 9.61426 9.00173 9.78467 8.81567C9.9549 8.62974 10.157 8.58325 10.2808 8.58325C10.4044 8.58325 10.5282 8.58466 10.6362 8.59009Z" fill="white"/>
</svg>
